<svg width="149" height="137" viewBox="0 0 149 137" fill="none" xmlns="http://www.w3.org/2000/svg">
<g filter="url(#filter0_b_80_502)">
<rect width="149" height="137" rx="32" fill="url(#paint0_linear_80_502)"/>
<rect x="0.75" y="0.75" width="147.5" height="135.5" rx="31.25" stroke="url(#paint1_linear_80_502)" stroke-width="1.5"/>
<path d="M58.2214 34.168C57.5401 34.168 56.9194 34.0793 56.3594 33.902C55.7994 33.7153 55.3281 33.4727 54.9454 33.174L55.6174 32.054C55.9534 32.334 56.3314 32.5627 56.7514 32.74C57.1714 32.9173 57.6614 33.006 58.2214 33.006C58.8934 33.006 59.4254 32.866 59.8174 32.586C60.2094 32.306 60.4054 31.928 60.4054 31.452C60.4054 31.1813 60.3494 30.9433 60.2374 30.738C60.1254 30.5233 59.9061 30.318 59.5794 30.122C59.2621 29.9167 58.7907 29.6973 58.1654 29.464C57.4934 29.2027 56.9567 28.9413 56.5554 28.68C56.1541 28.4093 55.8647 28.106 55.6874 27.77C55.5194 27.4247 55.4354 27.0187 55.4354 26.552C55.4354 26.0853 55.5614 25.6653 55.8134 25.292C56.0747 24.9093 56.4527 24.606 56.9474 24.382C57.4514 24.1487 58.0581 24.032 58.7674 24.032C59.3461 24.032 59.8641 24.0927 60.3214 24.214C60.7881 24.326 61.2407 24.4893 61.6794 24.704L61.1894 25.838C60.8721 25.6513 60.4987 25.4973 60.0694 25.376C59.6494 25.2453 59.2061 25.18 58.7394 25.18C58.1234 25.18 57.6381 25.3013 57.2834 25.544C56.9287 25.7867 56.7514 26.0993 56.7514 26.482C56.7514 26.7247 56.8027 26.9393 56.9054 27.126C57.0081 27.3127 57.2087 27.4947 57.5074 27.672C57.8154 27.8493 58.2727 28.05 58.8794 28.274C59.6074 28.5447 60.1814 28.8293 60.6014 29.128C61.0307 29.4267 61.3341 29.7533 61.5114 30.108C61.6887 30.4533 61.7774 30.85 61.7774 31.298C61.7774 31.9047 61.6234 32.4227 61.3154 32.852C61.0167 33.2813 60.5967 33.608 60.0554 33.832C59.5234 34.056 58.9121 34.168 58.2214 34.168ZM65.6324 34V25.376H62.6224V24.2H69.9724V25.376H66.9624V34H65.6324ZM77.2713 34.14L76.1793 31.34H71.6433L70.5513 34.112L69.4173 33.65L73.2533 24.2H74.7093L78.4893 33.65L77.2713 34.14ZM72.0633 30.22H75.7453L73.9113 25.516L72.0633 30.22ZM85.6009 34.168L84.3829 31.508C84.0749 30.8453 83.6876 30.374 83.2209 30.094C82.7542 29.814 82.1569 29.674 81.4289 29.674H81.2189V34H79.8889V24.228C80.3836 24.1813 80.8549 24.1487 81.3029 24.13C81.7602 24.102 82.2456 24.088 82.7589 24.088C83.9536 24.088 84.8496 24.3307 85.4469 24.816C86.0536 25.3013 86.3569 25.9267 86.3569 26.692C86.3569 27.3733 86.1516 27.924 85.7409 28.344C85.3396 28.7547 84.7562 29.0627 83.9909 29.268C84.2429 29.38 84.4669 29.5153 84.6629 29.674C84.8589 29.8233 85.0456 30.0287 85.2229 30.29C85.4096 30.542 85.5962 30.8733 85.7829 31.284L86.8469 33.58L85.6009 34.168ZM81.2189 28.554H82.7589C83.4309 28.554 83.9769 28.4047 84.3969 28.106C84.8169 27.8073 85.0269 27.378 85.0269 26.818C85.0269 26.3513 84.8309 25.9687 84.4389 25.67C84.0469 25.362 83.4869 25.208 82.7589 25.208C82.4416 25.208 82.1569 25.2127 81.9049 25.222C81.6529 25.2313 81.4242 25.2453 81.2189 25.264V28.554ZM89.9957 34V25.376H86.9857V24.2H94.3357V25.376H91.3257V34H89.9957Z" fill="#787878"/>
<path d="M64 72.6667H58.6667M89.688 64.1173L95.3333 61.2933M55.648 64.1173L50 61.2933M89.8669 65.0814L87.2969 54.1163C86.7318 51.705 84.581 50 82.1043 50H63.229C60.7523 50 58.6016 51.705 58.0364 54.1163L55.4665 65.0814M81.3333 72.6667H86.6667M95.3333 74V72.6667C95.3333 68.2484 91.7516 64.6667 87.3333 64.6667H58C53.5817 64.6667 50 68.2484 50 72.6667V84.6667C50 86.1394 51.1939 87.3333 52.6667 87.3333H58.6293C60.1021 87.3333 61.296 86.1394 61.296 84.6667V80.6667H76.6667M90 82V85.3333M90 85.3333C86.6863 85.3333 84 88.0196 84 91.3333C84 94.647 86.6863 97.3333 90 97.3333M90 85.3333C93.3137 85.3333 96 88.0196 96 91.3333C96 94.647 93.3137 97.3333 90 97.3333M90 97.3333V100.667M95.1961 94.3333L98 95.9522M98 86.7145L95.1961 88.3333M84.8039 88.3333L82 86.7145M82 95.9522L84.8039 94.3333" stroke="#0C92F4" stroke-width="3" stroke-linecap="round" stroke-linejoin="round"/>
</g>
<defs>
<filter id="filter0_b_80_502" x="-158.168" y="-158.168" width="465.335" height="453.335" filterUnits="userSpaceOnUse" color-interpolation-filters="sRGB">
<feFlood flood-opacity="0" result="BackgroundImageFix"/>
<feGaussianBlur in="BackgroundImageFix" stdDeviation="79.0838"/>
<feComposite in2="SourceAlpha" operator="in" result="effect1_backgroundBlur_80_502"/>
<feBlend mode="normal" in="SourceGraphic" in2="effect1_backgroundBlur_80_502" result="shape"/>
</filter>
<linearGradient id="paint0_linear_80_502" x1="119.281" y1="-27.2165" x2="118.532" y2="143.651" gradientUnits="userSpaceOnUse">
<stop stop-color="#9A8282" stop-opacity="0.14"/>
<stop offset="0.444794" stop-color="white" stop-opacity="0"/>
<stop offset="0.794339" stop-color="#2D242C" stop-opacity="0"/>
<stop offset="1" stop-color="#26272B" stop-opacity="0.2"/>
</linearGradient>
<linearGradient id="paint1_linear_80_502" x1="0" y1="0" x2="163.213" y2="117.209" gradientUnits="userSpaceOnUse">
<stop stop-color="white" stop-opacity="0.15"/>
<stop offset="0.740568" stop-color="white" stop-opacity="0"/>
<stop offset="1" stop-color="white" stop-opacity="0.19"/>
</linearGradient>
</defs>
</svg>
