<svg width="149" height="137" viewBox="0 0 149 137" fill="none" xmlns="http://www.w3.org/2000/svg">
<g filter="url(#filter0_b_51_561)">
<rect width="149" height="137" rx="32" fill="url(#paint0_linear_51_561)"/>
<rect x="0.75" y="0.75" width="147.5" height="135.5" rx="31.25" stroke="url(#paint1_linear_51_561)" stroke-width="1.5"/>
<path d="M61.2224 34.168C60.541 34.168 59.9204 34.0793 59.3604 33.902C58.8004 33.7153 58.329 33.4727 57.9464 33.174L58.6184 32.054C58.9544 32.334 59.3324 32.5627 59.7524 32.74C60.1724 32.9173 60.6624 33.006 61.2224 33.006C61.8944 33.006 62.4264 32.866 62.8184 32.586C63.2104 32.306 63.4064 31.928 63.4064 31.452C63.4064 31.1813 63.3504 30.9433 63.2384 30.738C63.1264 30.5233 62.907 30.318 62.5804 30.122C62.263 29.9167 61.7917 29.6973 61.1664 29.464C60.4944 29.2027 59.9577 28.9413 59.5564 28.68C59.155 28.4093 58.8657 28.106 58.6884 27.77C58.5204 27.4247 58.4364 27.0187 58.4364 26.552C58.4364 26.0853 58.5624 25.6653 58.8144 25.292C59.0757 24.9093 59.4537 24.606 59.9484 24.382C60.4524 24.1487 61.059 24.032 61.7684 24.032C62.347 24.032 62.865 24.0927 63.3224 24.214C63.789 24.326 64.2417 24.4893 64.6804 24.704L64.1904 25.838C63.873 25.6513 63.4997 25.4973 63.0704 25.376C62.6504 25.2453 62.207 25.18 61.7404 25.18C61.1244 25.18 60.639 25.3013 60.2844 25.544C59.9297 25.7867 59.7524 26.0993 59.7524 26.482C59.7524 26.7247 59.8037 26.9393 59.9064 27.126C60.009 27.3127 60.2097 27.4947 60.5084 27.672C60.8164 27.8493 61.2737 28.05 61.8804 28.274C62.6084 28.5447 63.1824 28.8293 63.6024 29.128C64.0317 29.4267 64.335 29.7533 64.5124 30.108C64.6897 30.4533 64.7784 30.85 64.7784 31.298C64.7784 31.9047 64.6244 32.4227 64.3164 32.852C64.0177 33.2813 63.5977 33.608 63.0564 33.832C62.5244 34.056 61.913 34.168 61.2224 34.168ZM68.6334 34V25.376H65.6234V24.2H72.9734V25.376H69.9634V34H68.6334ZM78.0085 34.168C77.2805 34.168 76.6318 34.0373 76.0625 33.776C75.4931 33.5053 75.0078 33.1413 74.6065 32.684C74.2145 32.2173 73.9111 31.676 73.6965 31.06C73.4911 30.444 73.3885 29.786 73.3885 29.086C73.3885 28.1247 73.5705 27.266 73.9345 26.51C74.3078 25.7447 74.8398 25.1427 75.5305 24.704C76.2211 24.256 77.0471 24.032 78.0085 24.032C78.7271 24.032 79.3711 24.1627 79.9405 24.424C80.5191 24.6853 81.0091 25.0493 81.4105 25.516C81.8118 25.9827 82.1151 26.5193 82.3205 27.126C82.5351 27.7327 82.6425 28.386 82.6425 29.086C82.6425 29.786 82.5351 30.444 82.3205 31.06C82.1151 31.676 81.8118 32.2173 81.4105 32.684C81.0091 33.1413 80.5238 33.5053 79.9545 33.776C79.3851 34.0373 78.7365 34.168 78.0085 34.168ZM78.0085 33.02C78.7271 33.02 79.3291 32.8473 79.8145 32.502C80.2998 32.1567 80.6638 31.69 80.9065 31.102C81.1585 30.5047 81.2845 29.8327 81.2845 29.086C81.2845 28.582 81.2098 28.0967 81.0605 27.63C80.9111 27.1633 80.6965 26.748 80.4165 26.384C80.1365 26.0107 79.7911 25.7167 79.3805 25.502C78.9791 25.2873 78.5218 25.18 78.0085 25.18C77.3271 25.18 76.7391 25.3527 76.2445 25.698C75.7591 26.0433 75.3858 26.51 75.1245 27.098C74.8725 27.686 74.7465 28.3487 74.7465 29.086C74.7465 29.59 74.8165 30.08 74.9565 30.556C75.1058 31.0227 75.3205 31.4427 75.6005 31.816C75.8805 32.1893 76.2211 32.4833 76.6225 32.698C77.0331 32.9127 77.4951 33.02 78.0085 33.02ZM84.5989 34V24.228C84.9815 24.1813 85.4015 24.1487 85.8589 24.13C86.3255 24.102 86.8062 24.088 87.3009 24.088C88.1129 24.088 88.8035 24.2187 89.3729 24.48C89.9422 24.732 90.3762 25.082 90.6749 25.53C90.9735 25.978 91.1229 26.4913 91.1229 27.07C91.1229 27.77 90.9502 28.3627 90.6049 28.848C90.2595 29.3333 89.7789 29.7067 89.1629 29.968C88.5469 30.22 87.8329 30.346 87.0209 30.346C86.6289 30.346 86.2649 30.332 85.9289 30.304V34H84.5989ZM87.1889 29.24C88.0195 29.24 88.6635 29.0533 89.1209 28.68C89.5782 28.3067 89.8069 27.8073 89.8069 27.182C89.8069 26.5753 89.5875 26.0947 89.1489 25.74C88.7102 25.3853 88.0849 25.208 87.2729 25.208C87.0209 25.208 86.7829 25.2127 86.5589 25.222C86.3349 25.2313 86.1249 25.2453 85.9289 25.264V29.17C86.0782 29.1887 86.2602 29.2073 86.4749 29.226C86.6895 29.2353 86.9275 29.24 87.1889 29.24Z" fill="#787878"/>
<path d="M95.3333 70.6667V57.3333C95.3333 54.3878 92.9455 52 90 52H55.3333C52.3878 52 50 54.3878 50 57.3333V94.6667C50 97.6122 52.3878 100 55.3333 100H63.3333M60.6667 65.3333H84.6667M60.6667 76H68.6667M60.6667 86.6667H63.3333M77.0381 88.3086L78.5711 81.7555C78.9944 79.9462 80.6079 78.6667 82.466 78.6667H92.2007C94.0588 78.6667 95.6723 79.9462 96.0955 81.7555L97.6286 88.3086M77.3043 86.9933L74 85.3333M97.3623 86.9933L100.667 85.3333M92.6667 96H82V97.3333C82 98.8061 80.8061 100 79.3333 100H76.6667C75.1939 100 74 98.8061 74 97.3333V92.6667C74 90.0893 76.0893 88 78.6667 88H96C98.5773 88 100.667 90.0893 100.667 92.6667V97.3333C100.667 98.8061 99.4728 100 98 100H95.3333C93.8606 100 92.6667 98.8061 92.6667 97.3333V96Z" stroke="#131212" stroke-width="3" stroke-linecap="round" stroke-linejoin="round"/>
</g>
<defs>
<filter id="filter0_b_51_561" x="-158.168" y="-158.168" width="465.335" height="453.335" filterUnits="userSpaceOnUse" color-interpolation-filters="sRGB">
<feFlood flood-opacity="0" result="BackgroundImageFix"/>
<feGaussianBlur in="BackgroundImageFix" stdDeviation="79.0838"/>
<feComposite in2="SourceAlpha" operator="in" result="effect1_backgroundBlur_51_561"/>
<feBlend mode="normal" in="SourceGraphic" in2="effect1_backgroundBlur_51_561" result="shape"/>
</filter>
<linearGradient id="paint0_linear_51_561" x1="119.281" y1="-27.2165" x2="118.532" y2="143.651" gradientUnits="userSpaceOnUse">
<stop stop-color="#9A8282" stop-opacity="0.14"/>
<stop offset="0.444794" stop-color="white" stop-opacity="0"/>
<stop offset="0.794339" stop-color="#2D242C" stop-opacity="0"/>
<stop offset="1" stop-color="#26272B" stop-opacity="0.2"/>
</linearGradient>
<linearGradient id="paint1_linear_51_561" x1="0" y1="0" x2="163.213" y2="117.209" gradientUnits="userSpaceOnUse">
<stop stop-color="white" stop-opacity="0.15"/>
<stop offset="0.740568" stop-color="white" stop-opacity="0"/>
<stop offset="1" stop-color="white" stop-opacity="0.19"/>
</linearGradient>
</defs>
</svg>
